<?xml version="1.0" encoding="UTF-8"?>
<svg id="Layer_2" xmlns="http://www.w3.org/2000/svg" viewBox="0 0 3424.13 1484.03">
  <defs>
    <style>
      .cls-1 {
        fill: #e5e1da;
      }
    </style>
  </defs>
  <g id="Layer_1-2" data-name="Layer_1">
    <g>
      <path class="cls-1" d="M0,849.71c50.95.26,101.89.66,152.84.75,70.57.13,141.14-.27,211.7.46,7.77.08,17.27,4.2,22.91,9.62,29.41,28.25,57.82,57.54,85.44,85.31-88.64,88.61-176.74,176.68-264.33,264.25-30.31-30.64-62.11-62.79-95.87-96.91,39.42-38.6,80.41-78.75,124.92-122.34H0v-141.14Z"/>
      <path class="cls-1" d="M0,574.15c51.46-.44,102.93-.89,154.39-1.32,6.43-.05,12.85,0,24.25,0-58.73-57.96-113.59-112.11-167.86-165.67,34.03-34.05,65.99-66.03,98.92-98.97,3.42,3.12,7.56,6.61,11.37,10.42,82.31,82.37,164.63,164.74,246.72,247.33,3.96,3.98,8.2,10.01,8.28,15.14.66,42.5.38,85,.38,130.07h-20.36c-111.99,0-223.99-.01-335.98.03-6.7,0-13.4.49-20.1.75,0-45.93,0-91.85,0-137.78Z"/>
      <path class="cls-1" d="M2171.77,1298.65c-3.05,14.02-4.97,26.11-8.34,37.79-21.89,75.94-75.53,118.33-149.39,136.93-59.06,14.87-118.75,14.15-177.74-2-88.39-24.19-132.99-82.94-131.5-174.29.83-50.97,13.64-99.31,36.91-146.9,28.22,9.81,55.99,19.47,85.5,29.74-4.67,14.87-10.58,28.76-13.22,43.24-4.38,24.01-9.62,48.46-9.13,72.61.78,37.81,22.21,64.72,57.36,77.24,50.75,18.08,102.73,17.53,152.74-2.59,47.81-19.24,71.42-68.56,60.94-128.84-8.01-46.1-20.74-91.38-31.85-139.11,29.96-7.77,62.05-16.08,95.15-24.66,6.5,25.04,12.52,48.77,18.84,72.42,16.44,61.53,33.12,74.34,96.77,74.67,13.97.07,27.93.18,41.9.19,118.15.01,236.29.05,354.44,0,143.87-.06,287.75.27,431.62-.52,54.22-.3,108.48-2.28,162.6-5.52,21.77-1.31,40.6-11.74,50.73-36.96-9.23,1.73-16.39,3.1-23.56,4.42-31.32,5.78-62.38,5.08-92.98-4.26-34.13-10.43-54.43-32.7-61.33-68.33-12.67-65.43,18.73-144.03,73.84-181.65,61.8-42.18,139.94-24.99,178.52,40.32,28.91,48.95,35.19,103.36,32.73,158.82-.91,20.46-4.43,41.33-10.29,60.95-24.16,80.89-84.16,116.6-163.84,123.87-46.22,4.22-92.76,6.76-139.16,6.87-276.7.63-553.4.31-830.1.36-30.78,0-60.17-4.98-88.17-24.8ZM3308.49,1085.85c-5.95-19.11-9.33-38.59-17.85-55.49-15.67-31.06-49.59-31.35-67.49-1.24-5.46,9.18-7.86,20.72-9.47,31.5-2.45,16.43,6.51,26.65,21.95,30.8,23.36,6.29,46.23,3.47,72.86-5.58Z"/>
      <path class="cls-1" d="M3304.23,98.34h119.9v495.74c-38.43,0-76.33.45-114.2-.56-4.83-.13-10.63-7.06-14.01-12.15-60.37-90.9-120.43-182.01-180.6-273.05-3.24-4.91-6.86-9.56-13.49-13.6v298.44h-119.84V97.54c38.44,0,76.35-.46,114.22.58,4.68.13,10.15,7.55,13.56,12.71,60.49,91.49,120.72,183.16,181.02,274.77,3.28,4.98,6.76,9.83,13.44,14.02V98.34Z"/>
      <path class="cls-1" d="M2123.02,593.26V98.79h302.76v95.37h-181.94v100.36h160.38v93.66h-160.31v108.46h181.39v96.61h-302.28Z"/>
      <path class="cls-1" d="M2758.96,593.57h-120.57c0-6.4,0-12.29,0-18.17,0-42.54.5-85.1-.35-127.63-.21-10.69-2.76-22.3-7.6-31.78-51.15-100.07-102.98-199.78-154.6-299.61-2.77-5.35-5.26-10.84-9.16-18.94,35.44,0,68.85,2,101.89-.63,26.36-2.1,39.07,6.73,49.33,31.28,24.53,58.66,52.78,115.77,80.91,176.48,4.05-7.55,7.04-12.5,9.45-17.71,27.15-58.88,54.48-117.69,81.04-176.84,4.37-9.74,9.55-12.97,20.01-12.81,39.16.6,78.34.24,120.5.24-3.21,6.89-5.44,12.15-8.06,17.22-51.06,98.86-102.45,197.54-152.87,296.73-6.02,11.84-9.17,26.3-9.49,39.65-1.13,46.9-.44,93.84-.44,142.53Z"/>
      <path class="cls-1" d="M309.65,111.25c38.61,39.33,78.17,79.63,121.52,123.78V.42h139.92v18.93c0,114.2-.16,228.39.25,342.59.04,11.05-3.35,18.53-11.1,26.15-28.65,28.17-56.59,57.06-84.09,84.95-89.56-89.56-177.35-177.37-263.82-263.84,30.8-31,62.9-63.31,97.31-97.95Z"/>
      <path class="cls-1" d="M711.73,0h137.34v171.78c55.06-55.97,108.84-110.64,161.76-164.43,36.47,36.85,68.46,69.16,101.3,102.34-2.44,2.58-6.47,7.07-10.73,11.33-81.87,82.03-163.73,164.06-245.73,245.95-3.35,3.34-7.96,7.64-12.03,7.69-43.55.56-87.11.35-131.9.35V0Z"/>
      <path class="cls-1" d="M1213.06,1212.17c-31.85,31.4-64.05,63.14-98.03,96.65-39.07-38.92-79.95-79.64-122.64-122.18v232.82h-138.06c-.29-4.77-.9-10.09-.91-15.41-.06-115.82-.24-231.63.36-347.45.04-7.77,4.18-17.33,9.61-22.97,28.28-29.3,57.6-57.6,85.64-85.35,88.11,88.06,175.89,175.8,264.03,263.89Z"/>
      <path class="cls-1" d="M711.9,1419.98h-136.96v-171.83c-54.87,55.64-108.7,110.24-161.44,163.72-36.77-37.05-68.81-69.34-101.5-102.28,1.4-1.48,5.06-5.57,8.94-9.44,81.58-81.48,163.03-163.09,245.08-244.09,5.89-5.81,16.06-9.98,24.36-10.2,40.14-1.04,80.32-.47,121.52-.47v374.59Z"/>
      <path class="cls-1" d="M1047.6,709.58h373.53v137.81h-172.74c56.6,56.69,110.86,111.04,164.16,164.42-34.05,34.23-65.9,66.24-98.82,99.34-2.76-2.52-6.9-6.02-10.73-9.83-81.61-81.43-163.33-162.76-244.47-244.66-5.86-5.92-10.24-16.03-10.46-24.33-1.07-40.23-.48-80.5-.48-122.75Z"/>
      <path class="cls-1" d="M949.26,474.77c90.26-90.31,178.04-178.14,264.86-265.02,31.31,30.83,63.5,62.53,95.37,93.91-39.79,39.94-80.23,80.54-120.68,121.15.76,1.39,1.51,2.79,2.27,4.18h229.87v138.76c-5.73.33-11.61.96-17.5.97-115.93.07-231.87.13-347.8-.18-5.47-.01-12.36-2.05-16.16-5.68-30.76-29.37-60.94-59.35-90.22-88.09Z"/>
      <path class="cls-1" d="M2006.35,298.7v93.33h-149.75v200.75h-120.61V98.68h320.85v95.31h-200.22v104.71h149.73Z"/>
      <path class="cls-1" d="M1935.88,1031.03c-29.5.36-52.85-22.2-52.94-51.14-.09-29.01,23.02-52.63,51.68-52.83,28.56-.2,51.85,23.27,52,52.4.14,28.38-22.33,51.23-50.74,51.57Z"/>
      <path class="cls-1" d="M3312.38,791.71c.22,29.09-21.27,51.15-50.21,51.52-30.24.39-52.53-21.08-52.69-50.76-.16-29.3,22.49-52.89,51.09-53.23,28.38-.34,51.59,23.17,51.81,52.47Z"/>
      <path class="cls-1" d="M3159.63,1462.58c0-15.56-.38-28.89.29-42.18.15-2.99,3.37-7.61,6.09-8.44,52.3-15.83,104.73-31.2,159.41-47.33,0,15.88.36,29.72-.29,43.51-.14,2.99-3.4,7.62-6.12,8.42-52.35,15.42-104.84,30.37-159.38,46.02Z"/>
    </g>
  </g>
</svg>