<?xml version="1.0" encoding="UTF-8"?>
<svg id="Layer_2" xmlns="http://www.w3.org/2000/svg" viewBox="0 0 1503.69 1503.74">
  <defs>
    <style>
      .cls-1 {
        fill: #e5e1da;
      }
    </style>
  </defs>
  <g id="Layer_1-2" data-name="Layer_1">
    <path class="cls-1" d="M1282.66,220.46c15.49,13.46,97,95.74,102.66,103.75-10.37,10.75-21.19,21.29-31.84,31.98-10.98,11.02-22,21.99-33,32.98-10.72,10.71-21.44,21.41-32.16,32.12-10.7,10.69-21.4,21.39-31.85,31.84,1.06,3.24,3.26,2.79,5.13,2.8,11.17.05,22.33.03,33.5.03,64.61,0,129.21,0,193.82,0,4.34,0,8.68,0,13.43,0,.53,3.05,1.27,5.32,1.27,7.59.06,44.25.05,88.51.02,132.76,0,1.57-.33,3.14-.58,5.29-2.2.54-4.39,1.38-6.63,1.55-3.57.27-7.17.1-10.76.1-119.64,0-239.28,0-358.92,0h-21.6c-8.1-6.12-96.85-94.8-102.89-102.83,7.21-8.98,272.5-273.99,280.41-279.98Z"/>
    <path class="cls-1" d="M1502.47,751.19c1.61,11.04,1.63,133.53.03,144.79-1.95.4-4.15,1.18-6.38,1.26-5.58.2-11.17.1-16.75.1-49.07,0-98.13-.02-147.2.04-4.27,0-8.67-.67-13.14.88.67,4.46,3.99,6.3,6.36,8.68,37.75,37.84,75.56,75.61,113.36,113.4,14.95,14.95,29.91,29.88,44.84,44.85,2.79,2.8,5.45,5.72,8.1,8.52-7.39,9.53-96.25,98.1-104.07,103.65-93.78-93.76-187.67-187.62-281.87-281.8,0-46.56-.01-93.19.05-139.81,0-1.51.72-3.01,1.07-4.38,9.48-1.31,383.65-1.49,395.59-.17Z"/>
    <path class="cls-1" d="M750.26,398.14c0-131.41,0-260.91.02-390.41,0-1.91.34-3.81.57-6.33,2.84-.3,5.11-.7,7.39-.76,43.74-1.24,126.52-.55,137.87,1.2,1.75,3.89.98,8.32.99,12.57.06,48.23.04,96.45.04,144.68,0,6.78-.07,13.55.07,20.33.04,1.8.72,3.58,1.4,6.78,11-10,20.24-19.84,29.82-29.31,9.64-9.53,19.18-19.15,28.77-28.73,9.87-9.86,19.73-19.73,29.6-29.59,9.58-9.58,19.17-19.16,28.75-28.75,9.58-9.58,19.17-19.17,28.76-28.75,9.56-9.55,19.12-19.09,29.18-29.13,2.04,1.49,3.72,2.41,5.01,3.7,31.88,31.83,63.71,63.69,95.54,95.57,1.1,1.1,1.95,2.45,2.94,3.71-.66,1.25-.99,2.51-1.79,3.3-93.27,93.3-186.58,186.56-280,279.94-47.82,0-95.56.01-144.93-.02Z"/>
    <path class="cls-1" d="M602.58,1.42c.56,33.95.2,66.97.26,100,.06,33.09.01,66.18.01,99.27v99.27c0,33.08,0,66.15,0,98.2-34.57,34.51-68.66,68.54-103.19,103.01.65.07.26.08-.09-.02-.38-.11-.81-.23-1.07-.5-91.42-91.29-182.82-182.58-274.22-273.89-1.39-1.39-2.63-2.93-4.35-4.85,1.22-1.69,2.15-3.42,3.47-4.75,31.82-31.9,63.67-63.77,95.55-95.62,1.1-1.1,2.44-1.97,4.02-3.23,9.79,7.84,17.84,17.19,26.63,25.74,8.86,8.62,17.51,17.46,26.25,26.2,8.46,8.46,16.92,16.92,25.38,25.37,8.74,8.74,17.48,17.49,26.22,26.22,8.62,8.6,17.19,17.25,25.5,25.42,1.73-.9,2.18-1,2.4-1.29.22-.28.22-.74.29-1.13.07-.39.13-.79.15-1.18.04-.8.05-1.59.07-2.39,0-.4,0-.8,0-1.2,0-.8,0-1.59,0-2.39,0-1.59,0-3.19,0-4.78,0-73.36,0-146.72,0-220.08,0-.8,0-1.59,0-2.39,0-.4,0-.8,0-1.2,0-.8.02-1.59.03-2.39,0-.4.01-.8.04-1.2.03-.4.08-.79.14-1.19.05-.4.05-.81.19-1.18.14-.35.42-.65,1.23-1.84,1.13-.19,2.99-.79,4.85-.79,44.67-.05,89.33-.04,134,0,1.54,0,3.08.36,6.2.76Z"/>
    <path class="cls-1" d="M.95,1047.07c-1.53-16.76-1.1-135.99.43-145.25,3.97-2.01,8.43-1.07,12.69-1.08,35.5-.09,71-.04,106.49-.05,92.14-.03,184.27-.07,276.41-.09.78,0,1.56.23,2.35.36,12.47,10.65,96.38,95.13,101.72,102.41-6.34,8.3-271.64,273.44-279.79,279.62-7.22-5.26-92.39-89.8-102.93-102.26,1.39-4.02,5.19-6.48,8.15-9.45,37.16-37.28,74.41-74.48,111.62-111.72,3.06-3.06,5.99-6.26,9.76-10.21-2.26-.84-3.53-1.67-4.83-1.72-4.78-.18-9.57-.12-14.36-.12-71,0-141.99,0-212.99-.02-4.7,0-9.4-.25-14.73-.4Z"/>
    <path class="cls-1" d="M.96,752.86c-1.48-16.21-1.09-136.01.37-145.22,3.97-2.12,8.44-1.12,12.7-1.13,52.24-.08,104.48-.05,156.71-.05h12.59c1.87-2.99.05-4.3-1.24-5.66-2.47-2.61-5.04-5.11-7.58-7.65-51.03-51.02-102.07-102.04-153.1-153.07-3.08-3.08-6.12-6.21-9.62-9.77,1.56-2.18,2.64-4.25,4.22-5.83,31.52-31.63,63.1-63.2,94.69-94.77,1.11-1.11,2.42-2,3.42-2.81.79.11,1.17.12,1.53.22.38.11.81.23,1.07.49,93.6,93.57,187.18,187.15,281.17,281.14-.01,47.29.04,95.03-.04,143.34-3.25.5-5.49,1.01-7.76,1.16-2.78.18-5.58.06-8.37.06-122.02,0-244.04,0-366.07-.02-4.69,0-9.39-.27-14.71-.43Z"/>
    <path class="cls-1" d="M1004.61,1001.31c93.05,93.11,186.26,186.38,278.45,278.64,0,2.4.08,2.78-.02,3.11-.11.37-.32.75-.6,1.03-32.09,32.17-64.18,64.33-96.29,96.49-1.12,1.12-2.29,2.22-3.54,3.19-.6.47-1.43.64-2.72,1.17-9.38-7.57-17.47-16.86-26.26-25.42-8.85-8.62-17.51-17.44-26.25-26.17-8.46-8.45-16.92-16.9-25.38-25.35-8.74-8.73-17.35-17.6-26.26-26.16-8.75-8.41-16.48-17.96-27.51-26.04-1.31,7.13-.61,13.01-.73,18.81-.12,5.58-.03,11.16-.03,16.74v192.51c0,5.95,0,11.9,0,18.2-2.53.61-4.38,1.44-6.22,1.44-45.05.06-90.1.04-135.15,0-1.14,0-2.29-.42-4.23-.79-.38-2.07-1.02-4.27-1.15-6.5-.2-3.58-.08-7.17-.08-10.76,0-121.16,0-242.33,0-363.49v-16.94c5.67-7.6,94.47-96.48,103.98-103.69Z"/>
    <path class="cls-1" d="M751.85,1502.25c-9.03,1.64-128.09,2.09-144.13.51-.43-1.95-1.29-4.13-1.33-6.33-.17-8.77-.09-17.54-.09-26.31,0-46.24,0-92.48-.02-138.72,0-3.89-.22-7.78-.33-11.36-3.04-1.58-4.27.41-5.59,1.68-4.3,4.15-8.49,8.42-12.72,12.65-49.65,49.58-99.29,99.17-148.95,148.75-2.79,2.79-5.71,5.45-9.17,8.74-12.68-10.76-23.49-22.89-35.06-34.19-11.41-11.14-22.65-22.45-33.86-33.8-11.44-11.58-23.37-22.68-34.19-34.68,7.48-10.38,222.94-226.89,281.87-283.36,47.32-.02,95.4-.01,143.72,0,.52,2.85,1.04,4.35,1.04,5.86,0,129.15-.02,258.31-.1,387.46,0,1.08-.73,2.16-1.08,3.12Z"/>
  </g>
</svg>